<?xml version="1.0"?><svg fill="#FAD6C2" id="Layer_1" xmlns="http://www.w3.org/2000/svg" viewBox="0 0 708.661 496.063"><path d="M275.003,261.185c4.467-.651,8.077-3.922,9.1-8.252.568-2.407,1.136-4.813,1.706-7.219-51.434,5.904-102.612,12.764-153.528,20.5,21.734-57.424,40.589-106.983,45.371-118.786,34.235-84.512,64.753-105.808,78.367-93.885,13.614,11.923-23.282,100.251-98.773,185.068l6.231,5.505c113.593-105.053,139.936-201.691,116.65-225.849-24.075-24.978-86.497,3.829-129.918,115.136-8.228,21.091-29.833,77.059-53.466,138.364-26.731,4.294-53.395,8.808-79.97,13.601,2.678,3.784,5.349,7.571,8.014,11.361,3.225,4.585,8.88,6.822,14.391,5.697,16.469-3.366,32.981-6.615,49.521-9.79C52.302,387.078,14.173,486.167,14.173,486.167l37.274-5.653s38.678-102.825,73.406-194.668c49.746-9.095,99.802-17.326,150.149-24.662Z"></path><path d="M658.09,247.142c-26.383,0-53.664,28.605-60.935,63.891-.062.3-.109.596-.168.896-21.019,43.181-49.751,51.123-62.111,43.204-13.662-8.752-11.436-37.009-.288-55.203,13.058-21.31,32.063-18.611,29.213-9.913-2.736,8.349,12.171,10.457,20.813-1.206,6.707-9.051,4.492-28.875-15.34-30.659-26.26-2.362-54.565,24.665-64.738,61.425-.717,2.592-1.322,5.154-1.837,7.686-7.575,23.086-15.906,37.462-25.21,36.874-11.913-.754-3.134-31.011,7.632-55.779,11.522-26.508-6.494-36.985-27.7-29.587-19.563,6.824-34.891,24.952-46.434,45.037l7.267-37.497-22.142,4.399v.002s-.003,0-.003,0c-10.397,38.828-21.21,66.252-34.351,81.549-8.931,10.395-18.914,8.045-17.113-6.342,3.036-24.249,13.48-56.613,13.48-56.613-17.359-19.557-63.865-15.014-90.602,16.034-15.079,17.51-22.454,35.544-23.758,50.948-3.852,6.236-21.382,32.909-35.854,26.76-16.358-6.95-7.973-38.583,40.281-103.048,0,0-17.159-13.571-31.223-2.205-9.428,7.619-22.314,19.034-40.491,27.284.146-18.026-19.431-26.547-31.837-13.443-10.462,11.05-8.468,28.203,5.844,32.383-16.059,37.247-49.435,60.882-49.435,60.882l6.969,10.583s38.423-22.408,61.61-69.379c15.139.725,26.622-.295,26.622-.295-25.908,37.789-32.845,80.875-10.6,90.886,19.201,8.641,44.294-10.431,59.72-42.119,2.889,9.818,9.086,17.177,17.859,20.52,21.925,8.356,53.398-17.765,61.96-37.395,0,0-9.981,36.992,11.771,36.97,12.595-.013,24.436-13.612,35.318-34.986l-7.575,28.28,29.108,4.453,3.362-17.348h0s0-.005,0-.005l.166-.856c1.479-7.371,13.247-60.648,48.551-83.242,8.754-5.603,17.301-5.091,18.956-3.379,0,0-10.408,18.732-16.582,34.067-8.92,22.155-10.217,50.003,10.948,54.793,17.669,3.999,31.888-12.849,42.777-37.449,3.407,16.535,13.66,28.038,30.977,29.666,24.802,2.331,47.205-18.892,63.308-49.247,3.481,21.04,16.723,35.508,35.481,35.508,26.383,0,53.664-28.605,60.935-63.891,7.271-35.286-8.222-63.891-34.605-63.891ZM325.967,347.21c-7.878,15.94-25.168,28.863-38.62,28.863s-17.97-12.922-10.093-28.863c7.878-15.94,25.169-28.863,38.62-28.863s17.97,12.922,10.093,28.863ZM672.368,302.906c-8.557,17.315-27.339,31.352-41.951,31.352s-19.52-14.037-10.963-31.352c8.557-17.315,27.339-31.352,41.951-31.352s19.52,14.037,10.963,31.352Z"></path><path d="M417.062,223.357v-61.91h37.152c7.316,0,12.663,1.534,16.04,4.597,3.377,3.065,5.066,7.222,5.066,12.475,0,3.128-.908,5.958-2.721,8.489-1.815,2.533-4.378,4.144-7.692,4.832v.093c3.689.69,6.614,2.362,8.771,5.018,2.158,2.658,3.236,5.676,3.236,9.052,0,5.253-1.969,9.46-5.909,12.616-3.94,3.158-9.568,4.737-16.884,4.737h-37.058ZM442.091,188.651h12.216c8.755,0,13.133-3.378,13.133-10.131,0-6.69-4.378-10.037-13.133-10.037h-12.216v20.168ZM442.091,216.322h13.811c4.439,0,7.739-.906,9.897-2.72,2.157-1.814,3.236-4.345,3.236-7.598,0-3.314-1.079-5.863-3.236-7.645-2.158-1.782-5.457-2.673-9.897-2.673h-13.811v20.636Z"></path><path d="M575.703,223.357h-7.974l-6.566-17.165h-28.048l-6.566,17.165h-25.404l24.107-61.91h26.437l24.014,61.91ZM535.836,199.157h22.606l-11.35-30.486-11.257,30.486Z"></path><path d="M670.007,223.357l-17.65-26.96c3.138-.748,5.855-2.023,8.129-3.854,3.847-3.095,5.769-7.425,5.769-12.991s-1.909-9.975-5.722-13.226c-3.815-3.251-8.881-4.878-15.196-4.878h-38.559v61.91h25.029v-25.701h12.391l16.898,25.701h8.911ZM631.808,168.483h13.435c4.44,0,7.739.923,9.897,2.766,2.158,1.845,3.236,4.614,3.236,8.303s-1.078,6.457-3.236,8.301c-2.158,1.845-5.456,2.768-9.897,2.768h-13.435v-22.138Z"></path></svg>