<svg xmlns="http://www.w3.org/2000/svg" xmlns:xlink="http://www.w3.org/1999/xlink" width="301" zoomAndPan="magnify" viewBox="0 0 225.75 161.999997" height="216" preserveAspectRatio="xMidYMid meet" version="1.0"><defs><clipPath id="7d9c2b6da0"><path d="M 0 0.0898438 L 225.5 0.0898438 L 225.5 161.910156 L 0 161.910156 Z M 0 0.0898438 " clip-rule="nonzero"></path></clipPath><clipPath id="546cc486cd"><path d="M 225.429688 81.847656 L 222.960938 80.679688 C 206.539062 98.75 178.511719 104.074219 162.308594 105.632812 C 157.335938 101.71875 151.082031 99.417969 144.371094 99.417969 L 131.214844 99.417969 L 131.214844 98.019531 C 131.214844 96.671875 130.226562 95.515625 128.886719 95.324219 L 115.351562 93.316406 C 110.996094 92.667969 107.742188 88.410156 107.742188 83.355469 L 107.742188 57.914062 C 161.609375 54.109375 134.878906 0.0898438 134.878906 0.0898438 L 74.6875 0.0898438 C 74.6875 0.0898438 47.957031 54.109375 101.816406 57.914062 L 101.816406 83.347656 C 101.816406 88.390625 98.5625 92.65625 94.207031 93.304688 L 80.679688 95.3125 C 79.34375 95.515625 78.351562 96.664062 78.351562 98.011719 L 78.351562 99.410156 L 62.652344 99.410156 C 62.652344 99.410156 48.105469 97.921875 48.105469 87.382812 C 48.105469 84.117188 46.230469 80.660156 43.242188 78.613281 C 41.695312 77.554688 40.914062 75.6875 41.292969 73.847656 L 41.992188 70.390625 C 42.382812 68.492188 41.792969 66.527344 40.445312 65.136719 L 35.539062 60.132812 C 34.671875 59.242188 33.53125 58.65625 32.304688 58.464844 L 25.042969 57.304688 C 24.101562 57.15625 23.144531 57.316406 22.304688 57.753906 L 20.277344 58.835938 C 19.378906 59.3125 18.339844 59.453125 17.339844 59.253906 L 3.1875 56.316406 C 1.976562 56.066406 0.789062 56.808594 0.480469 57.996094 C -0.167969 60.460938 -0.621094 64.636719 2.378906 67.863281 C 6.921875 72.75 19.996094 76.304688 15.683594 86.882812 C 12.9375 93.617188 11.476562 97.261719 11.476562 97.261719 L 12.386719 97.800781 L 18.890625 96.3125 L 11.296875 111.964844 L 12.207031 112.503906 L 19.71875 110.417969 C 19.71875 110.417969 14.503906 122.902344 18.789062 139.273438 L 19.699219 139.457031 L 27.539062 133.703125 C 33.664062 143.089844 33.421875 154.457031 33.421875 154.457031 L 27.519531 158.492188 L 28.699219 161.910156 L 42.242188 161.910156 L 45.089844 149.035156 L 50.855469 154.597656 L 51.761719 154.597656 C 51.761719 154.597656 62.210938 133.691406 86.664062 133.691406 L 139.003906 133.691406 C 143.78125 139.117188 151.480469 144.519531 163.546875 145.457031 L 163.546875 154.46875 L 156.6875 158.503906 L 157.875 161.921875 L 170.082031 161.921875 L 180.308594 141.632812 L 184.496094 141.632812 L 185.035156 140.902344 L 178.152344 130.09375 L 172.410156 121.074219 L 178.222656 124.050781 C 192.777344 131.503906 210.605469 125.808594 218.15625 111.304688 L 212.335938 107.859375 C 219.308594 100.839844 223.75 92.21875 225.410156 81.847656 " clip-rule="nonzero"></path></clipPath><clipPath id="a04a9cf0b4"><path d="M 0 0.0898438 L 225.5 0.0898438 L 225.5 161.910156 L 0 161.910156 Z M 0 0.0898438 " clip-rule="nonzero"></path></clipPath><clipPath id="c09bdaf0c0"><path d="M 225.429688 81.847656 L 222.960938 80.679688 C 206.539062 98.75 178.511719 104.074219 162.308594 105.632812 C 157.335938 101.71875 151.082031 99.417969 144.371094 99.417969 L 131.214844 99.417969 L 131.214844 98.019531 C 131.214844 96.671875 130.226562 95.515625 128.886719 95.324219 L 115.351562 93.316406 C 110.996094 92.667969 107.742188 88.410156 107.742188 83.355469 L 107.742188 57.914062 C 161.609375 54.109375 134.878906 0.0898438 134.878906 0.0898438 L 74.6875 0.0898438 C 74.6875 0.0898438 47.957031 54.109375 101.816406 57.914062 L 101.816406 83.347656 C 101.816406 88.390625 98.5625 92.65625 94.207031 93.304688 L 80.679688 95.3125 C 79.34375 95.515625 78.351562 96.664062 78.351562 98.011719 L 78.351562 99.410156 L 62.652344 99.410156 C 62.652344 99.410156 48.105469 97.921875 48.105469 87.382812 C 48.105469 84.117188 46.230469 80.660156 43.242188 78.613281 C 41.695312 77.554688 40.914062 75.6875 41.292969 73.847656 L 41.992188 70.390625 C 42.382812 68.492188 41.792969 66.527344 40.445312 65.136719 L 35.539062 60.132812 C 34.671875 59.242188 33.53125 58.65625 32.304688 58.464844 L 25.042969 57.304688 C 24.101562 57.15625 23.144531 57.316406 22.304688 57.753906 L 20.277344 58.835938 C 19.378906 59.3125 18.339844 59.453125 17.339844 59.253906 L 3.1875 56.316406 C 1.976562 56.066406 0.789062 56.808594 0.480469 57.996094 C -0.167969 60.460938 -0.621094 64.636719 2.378906 67.863281 C 6.921875 72.75 19.996094 76.304688 15.683594 86.882812 C 12.9375 93.617188 11.476562 97.261719 11.476562 97.261719 L 12.386719 97.800781 L 18.890625 96.3125 L 11.296875 111.964844 L 12.207031 112.503906 L 19.71875 110.417969 C 19.71875 110.417969 14.503906 122.902344 18.789062 139.273438 L 19.699219 139.457031 L 27.539062 133.703125 C 33.664062 143.089844 33.421875 154.457031 33.421875 154.457031 L 27.519531 158.492188 L 28.699219 161.910156 L 42.242188 161.910156 L 45.089844 149.035156 L 50.855469 154.597656 L 51.761719 154.597656 C 51.761719 154.597656 62.210938 133.691406 86.664062 133.691406 L 139.003906 133.691406 C 143.78125 139.117188 151.480469 144.519531 163.546875 145.457031 L 163.546875 154.46875 L 156.6875 158.503906 L 157.875 161.921875 L 170.082031 161.921875 L 180.308594 141.632812 L 184.496094 141.632812 L 185.035156 140.902344 L 178.152344 130.09375 L 172.410156 121.074219 L 178.222656 124.050781 C 192.777344 131.503906 210.605469 125.808594 218.15625 111.304688 L 212.335938 107.859375 C 219.308594 100.839844 223.75 92.21875 225.410156 81.847656 " clip-rule="nonzero"></path></clipPath><clipPath id="1b9f8eaefc"><rect x="0" width="226" y="0" height="162"></rect></clipPath></defs><g clip-path="url(#7d9c2b6da0)"><g clip-path="url(#546cc486cd)"><g transform="matrix(1, 0, 0, 1, 0, -0.000000000000005926)"><g clip-path="url(#1b9f8eaefc)"><g clip-path="url(#a04a9cf0b4)"><g clip-path="url(#c09bdaf0c0)"><path fill="#000000" d="M 0 0.0898438 L 225.664062 0.0898438 L 225.664062 161.910156 L 0 161.910156 Z M 0 0.0898438 " fill-opacity="1" fill-rule="nonzero"></path></g></g></g></g></g></g></svg>